# xmcd
#
# Track frame offsets:
#	150
#	21945
#	36992
#	48765
#	63803
#	79480
#	95786
#	124486
#	137615
#	147155
#	161349
#	171516
#	191643
#	202690
#	219290
#	242581
#
# Disc length: 3556 seconds
#
# Revision: 0
# Processed by: cddbd v1.4PL0 Copyright (c) Steve Scherf et al.
# Submitted via: EasyCDDAExtractor 4.6.9.1
#
DISCID=e10de210
DTITLE=Raymond Froggatt - The collection
DYEAR=1996
DGENRE=Country
TTITLE0=Don't let me cry again
TTITLE1=Belle of the ball
TTITLE2=Red balloon
TTITLE3=Charlie
TTITLE4=Sooner or later
TTITLE5=Something's going on
TTITLE6=Wings on my heals
TTITLE7=Old accordian
TTITLE8=Roly
TTITLE9=Coming home
TTITLE10=The minstrel
TTITLE11=Festival of fools
TTITLE12=Majic shaddows
TTITLE13=Follow you
TTITLE14=Everyone
TTITLE15=Lonely old world
EXTD=
EXTT0=
EXTT1=
EXTT2=
EXTT3=
EXTT4=
EXTT5=
EXTT6=
EXTT7=
EXTT8=
EXTT9=
EXTT10=
EXTT11=
EXTT12=
EXTT13=
EXTT14=
EXTT15=
PLAYORDER=
